<?xml version="1.0" encoding="iso-8859-1"?>
<svg xmlns="http://www.w3.org/2000/svg" xmlns:xlink="http://www.w3.org/1999/xlink" version="1.1" x="0px" y="0px" viewBox="0 0 103.077 103.078" style="enable-background:new 0 0 103.077 103.078;" xml:space="preserve">
<g>
	<g>
		<path d="M100.954,90.332L80.095,69.472c-1.786-1.785-4.27-2.441-6.572-1.977l-4.854-4.854c8.204-10.958,7.333-26.606-2.624-36.563    c-10.917-10.917-28.681-10.917-39.598,0s-10.917,28.681,0,39.598c9.957,9.957,25.605,10.829,36.564,2.624l4.854,4.854    c-0.468,2.303,0.189,4.786,1.977,6.571l20.859,20.859c2.831,2.831,7.422,2.831,10.253,0S103.785,93.163,100.954,90.332z     M60.387,60.017c-7.798,7.798-20.486,7.798-28.283,0c-7.799-7.797-7.799-20.485,0-28.284c7.798-7.799,20.486-7.798,28.284,0    C68.186,39.532,68.185,52.22,60.387,60.017z" fill="#FFFFFF"/>
		<path d="M15.771,52.083L0.438,67.471c-0.585,0.587-0.583,1.536,0.004,2.121c0.293,0.292,0.676,0.438,1.059,0.438    c0.385,0,0.77-0.147,1.063-0.441l14.38-14.433c-0.418-1.023-0.773-2.073-1.076-3.141C15.836,52.042,15.8,52.054,15.771,52.083z" fill="#FFFFFF"/>
		<path d="M63.854,8.892l12.064-4.467l-8.729,19.529c0.75,0.852,1.467,1.726,2.104,2.644l9.218-20.623l4.511,11.396    c0.233,0.589,0.799,0.948,1.396,0.948c0.185,0,0.371-0.034,0.552-0.106c0.771-0.305,1.147-1.176,0.843-1.946L79.896,1.317    c-0.3-0.758-1.152-1.137-1.915-0.854L62.814,6.079c-0.776,0.288-1.174,1.151-0.886,1.928C62.216,8.782,63.083,9.178,63.854,8.892z    " fill="#FFFFFF"/>
		<path d="M47.254,34.163c-0.352-0.369-0.865-0.533-1.365-0.44c-0.501,0.095-0.919,0.438-1.111,0.909l-9.864,24.243    c0.847,0.551,1.736,1.024,2.659,1.424l9.108-22.385l10.399,10.938c0.344,0.362,0.844,0.527,1.341,0.444    c0.493-0.085,0.911-0.409,1.115-0.866l3.027-6.774c-0.188-1.622-0.585-3.197-1.191-4.686l-3.661,8.191L47.254,34.163z" fill="#FFFFFF"/>
	</g>
</g>
<g>
</g>
<g>
</g>
<g>
</g>
<g>
</g>
<g>
</g>
<g>
</g>
<g>
</g>
<g>
</g>
<g>
</g>
<g>
</g>
<g>
</g>
<g>
</g>
<g>
</g>
<g>
</g>
<g>
</g>
</svg>
