<?xml version='1.0' encoding='iso-8859-1'?>
<!DOCTYPE svg PUBLIC '-//W3C//DTD SVG 1.1//EN' 'http://www.w3.org/Graphics/SVG/1.1/DTD/svg11.dtd'>
<svg version="1.1" xmlns="http://www.w3.org/2000/svg" viewBox="0 0 297 297" xmlns:xlink="http://www.w3.org/1999/xlink" enable-background="new 0 0 297 297">
  <g>
    <path d="m177.764,210.619c0-5.42-4.394-9.813-9.813-9.813h-158.138c-5.419,0-9.813,4.393-9.813,9.813 0,5.418 4.394,9.813 9.813,9.813h158.139c5.418,0 9.812-4.395 9.812-9.813z"/>
    <rect width="10.549" x="59.322" y="47.49" height="10.547"/>
    <rect width="10.548" x="107.894" y="96.061" height="10.549"/>
    <rect width="10.548" x="107.894" y="144.631" height="10.549"/>
    <rect width="10.549" x="59.322" y="144.631" height="10.549"/>
    <path d="m159.407,16.336c0-5.418-4.393-9.813-9.811-9.813h-121.427c-5.419,0-9.813,4.395-9.813,9.813v171.387h141.051v-171.387zm-75.8,145.711c0,3.795-3.074,6.869-6.868,6.869h-24.285c-3.794,0-6.869-3.074-6.869-6.869v-24.285c0-3.793 3.075-6.867 6.869-6.867h24.285c3.794,0 6.868,3.074 6.868,6.867v24.285zm0-48.57c0,3.795-3.074,6.869-6.868,6.869h-24.285c-3.794,0-6.869-3.074-6.869-6.869v-24.286c0-3.793 3.075-6.867 6.869-6.867h24.285c3.794,0 6.868,3.074 6.868,6.867v24.286zm0-48.571c0,3.793-3.074,6.869-6.868,6.869h-24.285c-3.794,0-6.869-3.076-6.869-6.869v-24.285c0-3.793 3.075-6.869 6.869-6.869h24.285c3.794,0 6.868,3.076 6.868,6.869v24.285zm48.572,97.141c0,3.795-3.075,6.869-6.869,6.869h-24.285c-3.794,0-6.868-3.074-6.868-6.869v-24.285c0-3.793 3.074-6.867 6.868-6.867h24.285c3.794,0 6.869,3.074 6.869,6.867v24.285zm0-48.57c0,3.795-3.075,6.869-6.869,6.869h-24.285c-3.794,0-6.868-3.074-6.868-6.869v-24.286c0-3.793 3.074-6.867 6.868-6.867h24.285c3.794,0 6.869,3.074 6.869,6.867v24.286zm0-48.571c0,3.793-3.075,6.869-6.869,6.869h-24.285c-3.794,0-6.868-3.076-6.868-6.869v-24.285c0-3.793 3.074-6.869 6.868-6.869h24.285c3.794,0 6.869,3.076 6.869,6.869v24.285z"/>
    <rect width="10.549" x="59.322" y="96.061" height="10.549"/>
    <rect width="10.548" x="107.894" y="47.49" height="10.547"/>
    <path d="m293.717,217.232l-36.415-32.457c-3.72-3.318-9.337-3.316-13.057-0.002l-36.418,32.457c-2.089,1.863-3.284,4.529-3.284,7.326v56.107c0,5.418 4.393,9.813 9.813,9.813h72.833c5.419,0 9.811-4.395 9.811-9.813v-56.107c5.68434e-14-2.796-1.194-5.462-3.283-7.324z"/>
    <path d="m229.456,163.018c-3.257,3.258-3.257,8.539 0,11.797 3.258,3.256 8.538,3.256 11.796,0 5.249-5.252 13.791-5.252 19.04,0 1.629,1.627 3.763,2.443 5.898,2.443 2.135,0 4.27-0.816 5.898-2.443 3.257-3.258 3.257-8.539 0-11.797-11.754-11.752-30.878-11.752-42.632,0z"/>
    <path d="m212.495,144.053c-3.257,3.256-3.257,8.537 0.001,11.795 3.256,3.256 8.539,3.256 11.795-0.002 7.074-7.072 16.479-10.969 26.482-10.969s19.408,3.896 26.48,10.969c1.629,1.629 3.764,2.443 5.898,2.443 2.134,0 4.269-0.814 5.896-2.441 3.258-3.256 3.258-8.539 0.001-11.795-10.223-10.227-23.816-15.857-38.276-15.857-14.459-0.001-28.052,5.63-38.277,15.857z"/>
    <path d="m181.977,49.207h54.948v54.949c0,5.418 4.395,9.813 9.813,9.813 5.419,0 9.813-4.395 9.813-9.813v-64.761c0-5.418-4.394-9.813-9.813-9.813h-64.761c-5.419,0-9.813,4.395-9.813,9.813 0.001,5.418 4.395,9.812 9.813,9.812z"/>
    <path d="m181.976,263.113h-54.948v-22.566c0-5.42-4.394-9.813-9.813-9.813-5.419,0-9.813,4.393-9.813,9.813v32.379c0,5.42 4.394,9.813 9.813,9.813h64.761c5.419,0 9.813-4.393 9.813-9.813-0.001-5.418-4.394-9.813-9.813-9.813z"/>
  </g>
</svg>
